<svg version="1" xmlns="http://www.w3.org/2000/svg" width="42.084" height="47.041" viewBox="0 0 42.084 47.041"><path fill="#A4C639" d="M34.144 14.009h-26.199l-.018.333v18.754c0 1.926 1.457 3.491 3.316 3.628v7.433c0 1.594 1.291 2.885 2.885 2.885 1.593 0 2.885-1.291 2.885-2.885v-7.419h8.058v7.419c0 1.594 1.292 2.885 2.885 2.885 1.595 0 2.886-1.291 2.886-2.885v-7.433c1.858-.137 3.315-1.702 3.315-3.628v-18.754l-.013-.333z"/><path fill="#A4C639" d="M2.886 15.679c1.593 0 2.886 1.292 2.886 2.885v12.378c0 1.595-1.292 2.886-2.886 2.886s-2.886-1.291-2.886-2.886v-12.378c0-1.594 1.292-2.885 2.886-2.885z"/><path fill="#A4C639" d="M39.198 15.679c1.595 0 2.886 1.292 2.886 2.885v12.378c0 1.595-1.291 2.886-2.886 2.886-1.594 0-2.885-1.291-2.885-2.886v-12.378c0-1.594 1.291-2.885 2.885-2.885z"/><path fill="#A4C639" d="M8.03 11.967h26.025c-.039-2.783-1.234-5.322-3.186-7.275l2.446-4.235c.082-.146.032-.331-.112-.415-.146-.084-.331-.034-.415.111l-2.372 4.107c-2.052-1.853-4.821-3.101-7.924-3.4h-2.9c-3.102.299-5.872 1.547-7.924 3.4l-2.372-4.108c-.083-.145-.269-.194-.415-.111-.145.084-.195.27-.111.415l2.445 4.235c-1.95 1.954-3.147 4.493-3.185 7.276zm17.293-5.163c-.002-.805.664-1.46 1.489-1.462.825-.002 1.494.648 1.497 1.454v.008c.002.805-.664 1.46-1.489 1.462-.824.002-1.494-.649-1.497-1.454v-.008zm-11.143 0c-.001-.805.665-1.46 1.489-1.462.824-.002 1.494.648 1.497 1.454v.008c.002.805-.664 1.46-1.488 1.462-.825.002-1.495-.649-1.498-1.454v-.008z"/></svg>